<svg fill="#000000" viewBox="0 0 24 24" xmlns="http://www.w3.org/2000/svg">
    <g id="SVGRepo_bgCarrier" stroke-width="0"></g>
        <g id="SVGRepo_tracerCarrier" stroke-linecap="round" stroke-linejoin="round" stroke="#CCCCCC" stroke-width="0.048"></g>
            <g id="SVGRepo_iconCarrier"> 
                <g data-name="Layer 2"> 
                <g data-name="arrow-back"> 
                <rect width="24" height="24" transform="rotate(90 12 12)" opacity="0"></rect> 
                <path d="M19 11H7.14l3.63-4.36a1 1 0 1 0-1.54-1.28l-5 6a1.19 1.19 0 0 0-.09.15c0 .05 0 .08-.07.13A1 1 0 0 0 4 12a1 1 0 0 0 .07.36c0 .05 0 .08.07.13a1.19 1.19 0 0 0 .09.15l5 6A1 1 0 0 0 10 19a1 1 0 0 0 .64-.23 1 1 0 0 0 .13-1.41L7.14 13H19a1 1 0 0 0 0-2z">
                </path> 
            </g> 
        </g> 
    </g>
</svg>