<svg xmlns="http://www.w3.org/2000/svg" xmlns:xlink="http://www.w3.org/1999/xlink" version="1.1" width="256" height="256" viewBox="0 0 256 256" xml:space="preserve">

<defs>
</defs>
<g style="stroke: none; stroke-width: 0; stroke-dasharray: none; stroke-linecap: butt; stroke-linejoin: miter; stroke-miterlimit: 10; fill: none; fill-rule: nonzero; opacity: 1;" transform="translate(1.4065934065934016 1.4065934065934016) scale(2.81 2.81)" >
	<path d="M 36.771 88.186 c -0.351 0 -0.701 -0.092 -1.013 -0.275 c -0.612 -0.359 -0.987 -1.016 -0.987 -1.725 V 47.872 c 0 -2.541 -0.927 -4.99 -2.609 -6.895 L 0.501 5.139 C -0.02 4.549 -0.146 3.709 0.177 2.992 C 0.5 2.275 1.213 1.814 2 1.814 h 16.784 c 1.104 0 2 0.896 2 2 s -0.896 2 -2 2 H 6.436 L 35.16 38.329 c 2.329 2.637 3.611 6.025 3.611 9.543 V 82.78 l 12.458 -6.947 V 47.872 c 0 -3.519 1.282 -6.908 3.611 -9.543 L 83.564 5.814 H 33.76 c -1.104 0 -2 -0.896 -2 -2 s 0.896 -2 2 -2 H 88 c 0.786 0 1.5 0.461 1.823 1.178 c 0.323 0.717 0.196 1.557 -0.324 2.146 l -31.66 35.839 c -1.683 1.904 -2.609 4.353 -2.609 6.895 v 29.136 c 0 0.726 -0.393 1.394 -1.026 1.747 l -16.458 9.178 C 37.442 88.102 37.106 88.186 36.771 88.186 z" style="stroke: none; stroke-width: 1; stroke-dasharray: none; stroke-linecap: butt; stroke-linejoin: miter; stroke-miterlimit: 10; fill: rgb(0,0,0); fill-rule: nonzero; opacity: 1;" transform=" matrix(1 0 0 1 0 0) " stroke-linecap="round" />
	<path d="M 71.674 24.295 H 18.326 c -1.104 0 -2 -0.896 -2 -2 s 0.896 -2 2 -2 h 53.348 c 1.104 0 2 0.896 2 2 S 72.778 24.295 71.674 24.295 z" style="stroke: none; stroke-width: 1; stroke-dasharray: none; stroke-linecap: butt; stroke-linejoin: miter; stroke-miterlimit: 10; fill: rgb(0,0,0); fill-rule: nonzero; opacity: 1;" transform=" matrix(1 0 0 1 0 0) " stroke-linecap="round" />
	<path d="M 62.952 34.167 H 27.048 c -1.104 0 -2 -0.896 -2 -2 s 0.896 -2 2 -2 h 35.904 c 1.104 0 2 0.896 2 2 S 64.057 34.167 62.952 34.167 z" style="stroke: none; stroke-width: 1; stroke-dasharray: none; stroke-linecap: butt; stroke-linejoin: miter; stroke-miterlimit: 10; fill: rgb(0,0,0); fill-rule: nonzero; opacity: 1;" transform=" matrix(1 0 0 1 0 0) " stroke-linecap="round" />
</g>
</svg>